<svg xmlns="http://www.w3.org/2000/svg" xmlns:xlink="http://www.w3.org/1999/xlink" width="500" zoomAndPan="magnify" viewBox="0 0 375 374.999991" height="500" preserveAspectRatio="xMidYMid meet" version="1.0"><defs><g/><clipPath id="id1"><path d="M 102.664062 78.75 L 225 78.75 L 225 212 L 102.664062 212 Z M 102.664062 78.75 " clip-rule="nonzero"/></clipPath></defs><g clip-path="url(#id1)"><path fill="#000000" d="M 219.585938 83.449219 C 227.964844 87.183594 224.109375 105.722656 216.375 116.988281 C 209.980469 126.296875 201.246094 128.9375 192.117188 127.640625 C 189.742188 127.304688 189.21875 128.09375 188.21875 128.984375 C 181.96875 134.546875 176.246094 140.988281 170.871094 147.996094 C 186.398438 165.476562 199.710938 184.175781 210.746094 201.582031 C 215.570312 209.1875 203.5 215.726562 199.738281 207.328125 C 190.769531 187.296875 180.15625 168.546875 167.726562 152.210938 C 155.691406 168.773438 145.28125 188.019531 134.273438 206.304688 C 129.566406 214.121094 117.234375 208.265625 123.1875 200.6875 C 137.53125 182.429688 149.554688 163.90625 163.929688 147.367188 C 158 140.277344 152.160156 133.707031 145.246094 127.367188 C 143.253906 125.539062 140.898438 125.820312 138.761719 127.265625 C 125.050781 136.550781 108.84375 103.257812 102.664062 90.101562 C 111.164062 102.253906 119.640625 115.039062 128.367188 121.421875 C 129.230469 122.054688 130.199219 122.476562 130.929688 121.902344 C 131.660156 121.324219 131.816406 120.0625 131.023438 119.332031 C 121.324219 110.363281 112.886719 99.316406 107.195312 86.5 C 115.066406 98.070312 123.742188 108.527344 133.722656 117.203125 C 134.53125 117.910156 135.707031 118.136719 136.4375 117.5625 C 137.164062 116.984375 137.507812 115.554688 136.683594 114.871094 C 126.777344 106.652344 117.128906 96.050781 112.242188 82.496094 C 119.867188 94.804688 128.773438 105.070312 139.230469 112.867188 C 140.085938 113.503906 141.058594 113.917969 141.789062 113.34375 C 142.519531 112.769531 142.074219 111.574219 141.257812 110.871094 C 130.605469 101.699219 121.609375 91.902344 116.65625 78.988281 C 125.183594 92.054688 138.316406 104.871094 144.28125 109.703125 C 148.039062 112.75 148.6875 117.714844 146.226562 121.125 C 144.960938 122.871094 147.054688 123.992188 147.992188 124.839844 C 154.675781 130.863281 161.042969 137.234375 167.085938 143.808594 C 172.398438 137.957031 178.058594 132.382812 184.285156 127.191406 C 185.304688 126.34375 185.222656 125.285156 183.648438 123.824219 C 179.074219 119.578125 179.535156 113.828125 184.484375 105.820312 C 182.820312 110.378906 183.375 115.050781 187.65625 118.882812 C 192.371094 107.132812 202.945312 93.726562 213.179688 87.75 C 208.71875 86.546875 202.636719 88.347656 197.148438 91.738281 C 205.046875 85.359375 214.195312 81.042969 219.585938 83.449219 Z M 170.050781 147.074219 C 171.902344 144.566406 173.792969 142.066406 175.734375 139.5625 C 173.675781 141.953125 171.675781 144.335938 169.726562 146.710938 Z M 167 151.265625 C 166.84375 151.058594 166.683594 150.855469 166.527344 150.652344 C 153.453125 166.941406 142.289062 183.164062 129.375 201.242188 C 127.546875 203.800781 125.589844 205.753906 123.441406 204.777344 C 124.878906 208.605469 131.027344 208.417969 133.011719 205.003906 C 144.40625 185.414062 154.894531 168.121094 167 151.265625 Z M 111.472656 104.773438 C 116.738281 113.320312 121.5625 122.015625 130.722656 126.816406 C 133.746094 128.398438 137.960938 125.417969 140.105469 124.226562 C 142.050781 123.144531 143.589844 123.574219 145.941406 124.699219 C 144.097656 123.109375 144.25 121.101562 145.113281 119.71875 C 142.011719 120.421875 139.6875 119.5 138.289062 118.207031 C 137.238281 119.414062 135.042969 119.636719 133.117188 118.425781 L 130.714844 116.917969 L 132.285156 119.132812 C 134.152344 121.761719 131.023438 125.015625 128.160156 122.921875 C 121.292969 117.894531 116.816406 112.320312 111.472656 104.773438 Z M 209.84375 206.035156 C 207.679688 206.972656 205.734375 206.222656 204.117188 203.527344 C 189.957031 179.894531 177.703125 159.195312 159.429688 139.964844 C 176.574219 160.214844 190.144531 182.582031 201.394531 206.144531 C 203.398438 210.339844 208.34375 209.835938 209.84375 206.035156 Z M 192.480469 125.632812 C 208.277344 128.792969 222.125 110.1875 222.632812 94.210938 C 219.84375 116.488281 200.332031 126.28125 192.480469 125.632812 Z M 192.480469 125.632812 " fill-opacity="1" fill-rule="evenodd"/></g><g fill="#000000" fill-opacity="1"><g transform="translate(21.169973, 266.693814)"><g><path d="M 29.886719 -30.335938 L 9.792969 -30.335938 L 9.792969 -41.917969 L 24.320312 -41.917969 L 24.320312 -51.199219 L 0.703125 -51.199219 C 0.320312 -51.199219 0 -50.878906 0 -50.621094 L 0 -0.574219 C 0 -0.320312 0.320312 0 0.703125 0 L 9.792969 0 L 9.792969 -21.054688 L 29.886719 -21.054688 C 30.269531 -21.054688 30.589844 -21.375 30.589844 -21.632812 L 30.589844 -29.757812 C 30.589844 -30.078125 30.269531 -30.335938 29.886719 -30.335938 Z M 29.886719 -30.335938 "/></g></g></g><g fill="#000000" fill-opacity="1"><g transform="translate(53.295997, 266.693814)"><g><path d="M 40.191406 -0.769531 L 20.734375 -50.8125 C 20.542969 -51.324219 19.648438 -51.324219 19.457031 -50.8125 L 0.0625 -0.769531 C -0.128906 -0.382812 0.128906 0 0.703125 0 L 9.472656 0 C 9.726562 0 10.046875 -0.128906 10.113281 -0.382812 L 20.09375 -28.925781 L 30.207031 -0.382812 C 30.269531 -0.128906 30.589844 0 30.78125 0 L 39.613281 0 C 40.0625 0 40.382812 -0.382812 40.191406 -0.769531 Z M 40.191406 -0.769531 "/></g></g></g><g fill="#000000" fill-opacity="1"><g transform="translate(95.533402, 266.693814)"><g><path d="M 23.488281 -28.414062 C 19.839844 -30.144531 16.253906 -30.144531 15.933594 -30.144531 C 12.671875 -30.144531 9.535156 -32.0625 9.535156 -35.773438 C 9.535156 -39.871094 12.414062 -41.980469 15.933594 -41.980469 C 19.261719 -41.980469 22.078125 -40.253906 22.207031 -36.605469 C 22.207031 -36.414062 22.527344 -36.09375 22.910156 -36.09375 L 30.910156 -36.09375 C 31.359375 -36.09375 31.679688 -36.414062 31.613281 -36.605469 C 31.488281 -45.308594 24.703125 -51.199219 15.933594 -51.199219 C 7.742188 -51.199219 0 -45.375 0 -35.773438 C 0 -29.824219 3.007812 -25.277344 8.320312 -22.847656 C 12.03125 -21.121094 15.488281 -21.121094 15.933594 -21.121094 C 18.816406 -20.992188 22.335938 -18.6875 22.335938 -14.910156 C 22.335938 -11.519531 19.328125 -9.214844 15.933594 -9.214844 C 15.933594 -9.214844 15.933594 -9.214844 15.871094 -9.214844 L 15.871094 0 C 15.933594 0 15.933594 0 15.933594 0 C 24.128906 0 31.808594 -5.3125 31.808594 -14.910156 C 31.808594 -20.925781 28.863281 -25.917969 23.488281 -28.414062 Z M 23.488281 -28.414062 "/></g></g></g><g fill="#000000" fill-opacity="1"><g transform="translate(128.939356, 266.693814)"><g><path d="M 10.558594 -32.640625 L 10.558594 -0.574219 C 10.558594 -0.320312 10.816406 0 11.261719 0 L 19.519531 0 C 19.96875 0 20.289062 -0.320312 20.289062 -0.574219 L 20.289062 -32.640625 Z M 0.703125 -42.429688 L 30.078125 -42.429688 C 30.527344 -42.429688 30.78125 -42.6875 30.78125 -43.007812 L 30.78125 -50.621094 C 30.78125 -50.878906 30.527344 -51.199219 30.078125 -51.199219 L 0.703125 -51.199219 C 0.320312 -51.199219 0 -50.878906 0 -50.621094 L 0 -43.007812 C 0 -42.6875 0.320312 -42.429688 0.703125 -42.429688 Z M 0.703125 -42.429688 "/></g></g></g><g fill="#000000" fill-opacity="1"><g transform="translate(161.257378, 266.693814)"><g/></g></g><g fill="#000000" fill-opacity="1"><g transform="translate(177.2564, 266.693814)"><g><path d="M 29.886719 -30.335938 L 9.792969 -30.335938 L 9.792969 -41.917969 L 24.320312 -41.917969 L 24.320312 -51.199219 L 0.703125 -51.199219 C 0.320312 -51.199219 0 -50.878906 0 -50.621094 L 0 -0.574219 C 0 -0.320312 0.320312 0 0.703125 0 L 9.792969 0 L 9.792969 -21.054688 L 29.886719 -21.054688 C 30.269531 -21.054688 30.589844 -21.375 30.589844 -21.632812 L 30.589844 -29.757812 C 30.589844 -30.078125 30.269531 -30.335938 29.886719 -30.335938 Z M 29.886719 -30.335938 "/></g></g></g><g fill="#000000" fill-opacity="1"><g transform="translate(209.382424, 266.693814)"><g><path d="M 29.4375 -25.472656 C 29.4375 -28.160156 27.328125 -30.335938 24.640625 -30.335938 C 21.949219 -30.335938 19.839844 -28.160156 19.839844 -25.472656 C 19.839844 -22.847656 21.949219 -20.671875 24.640625 -20.671875 C 27.328125 -20.671875 29.4375 -22.847656 29.4375 -25.472656 Z M 49.277344 -25.664062 C 49.277344 -38.398438 41.023438 -51.199219 24.703125 -51.199219 C 8.128906 -51.199219 0 -38.398438 0 -25.664062 C 0 -12.863281 8.128906 0 24.703125 0 C 41.023438 0 49.277344 -12.863281 49.277344 -25.664062 Z M 39.679688 -25.472656 C 39.679688 -17.214844 34.621094 -8.960938 24.703125 -8.960938 C 14.65625 -8.960938 9.664062 -17.214844 9.664062 -25.472656 C 9.664062 -33.855469 14.65625 -42.175781 24.703125 -42.175781 C 34.621094 -42.175781 39.679688 -33.855469 39.679688 -25.472656 Z M 39.679688 -25.472656 "/></g></g></g><g fill="#000000" fill-opacity="1"><g transform="translate(261.091268, 266.693814)"><g><path d="M 29.4375 -25.472656 C 29.4375 -28.160156 27.328125 -30.335938 24.640625 -30.335938 C 21.949219 -30.335938 19.839844 -28.160156 19.839844 -25.472656 C 19.839844 -22.847656 21.949219 -20.671875 24.640625 -20.671875 C 27.328125 -20.671875 29.4375 -22.847656 29.4375 -25.472656 Z M 49.277344 -25.664062 C 49.277344 -38.398438 41.023438 -51.199219 24.703125 -51.199219 C 8.128906 -51.199219 0 -38.398438 0 -25.664062 C 0 -12.863281 8.128906 0 24.703125 0 C 41.023438 0 49.277344 -12.863281 49.277344 -25.664062 Z M 39.679688 -25.472656 C 39.679688 -17.214844 34.621094 -8.960938 24.703125 -8.960938 C 14.65625 -8.960938 9.664062 -17.214844 9.664062 -25.472656 C 9.664062 -33.855469 14.65625 -42.175781 24.703125 -42.175781 C 34.621094 -42.175781 39.679688 -33.855469 39.679688 -25.472656 Z M 39.679688 -25.472656 "/></g></g></g><g fill="#000000" fill-opacity="1"><g transform="translate(312.800111, 266.693814)"><g><path d="M 9.085938 -51.199219 L 0.703125 -51.199219 C 0.320312 -51.199219 0 -50.878906 0 -50.621094 L 0 -30.527344 L 9.792969 -30.527344 L 9.792969 -41.855469 C 20.925781 -42.429688 29.183594 -37.757812 29.183594 -25.597656 C 29.183594 -9.792969 16 -9.152344 9.792969 -9.40625 L 9.792969 -20.671875 L 0 -20.671875 L 0 -0.574219 C 0 -0.320312 0.320312 0 0.703125 0 L 9.085938 0 C 21.824219 0 39.039062 -3.710938 39.039062 -25.597656 C 39.039062 -48.316406 21.566406 -51.199219 9.085938 -51.199219 Z M 9.085938 -51.199219 "/></g></g></g></svg>